<svg width="31" height="24" viewBox="0 0 31 24" fill="none" xmlns="http://www.w3.org/2000/svg">
<path d="M27.4495 5.99557C27.469 6.25807 27.469 6.51907 27.469 6.78007C27.469 14.7676 21.3895 23.9716 10.279 23.9716C6.856 23.9716 3.676 22.9801 1 21.2581C1.486 21.3136 1.954 21.3331 2.4595 21.3331C5.17899 21.3396 7.82147 20.4303 9.961 18.7516C8.70013 18.7287 7.47786 18.3128 6.46486 17.5617C5.45185 16.8106 4.69868 15.7619 4.3105 14.5621C4.684 14.6176 5.059 14.6551 5.452 14.6551C5.9935 14.6551 6.538 14.5801 7.0435 14.4496C5.67514 14.1733 4.44471 13.4316 3.56143 12.3506C2.67815 11.2696 2.19654 9.91604 2.1985 8.52007V8.44507C3.004 8.89357 3.9385 9.17407 4.9285 9.21157C4.09913 8.66044 3.41908 7.9126 2.94901 7.03475C2.47894 6.1569 2.23347 5.17635 2.2345 4.18057C2.2345 3.05857 2.533 2.02957 3.0565 1.13257C4.57471 3.0001 6.46825 4.52791 8.6145 5.61705C10.7608 6.7062 13.1118 7.33239 15.5155 7.45507C15.4225 7.00507 15.3655 6.53857 15.3655 6.07057C15.3651 5.27701 15.5211 4.49115 15.8246 3.75793C16.1281 3.0247 16.5732 2.35848 17.1343 1.79735C17.6954 1.23622 18.3616 0.791181 19.0949 0.487682C19.8281 0.184183 20.6139 0.0281709 21.4075 0.0285652C23.1475 0.0285652 24.718 0.757565 25.822 1.93657C27.1747 1.67499 28.4718 1.1812 29.656 0.477065C29.2051 1.87329 28.2606 3.05722 26.9995 3.80707C28.1992 3.67023 29.3717 3.35474 30.478 2.87107C29.6517 4.07571 28.6278 5.13208 27.4495 5.99557Z" fill="white" fill-opacity="0.78"/>
</svg>
